# xmcd
#
# Track frame offsets: 
#        150
#        21589
#        65621
#        73361
#        156879
#        169821
#        177754
#        209105
#        215821
#        220786
#        237299
#        251253
#        269168
#        295015
#        305895
#
# Disc length: 4366 seconds
#
# Revision: 1
# Processed by: cddbd v1.5.2PL0 Copyright (c) Steve Scherf et al.
# Submitted via: ExactAudioCopy v1.0b3
#
DISCID=fc110c0f
DTITLE=Mikhail Rudy etc - The Other Wagner [CD3)
DYEAR=2012
DGENRE=Classical
TTITLE0=Wagner, Richard - Ankunft bei den schwarzen Schwänen
TTITLE1=Wagner, Richard - Piano Sonata in A flat
TTITLE2=Wagner, Richard - Elegie in A flat
TTITLE3=Wagner, Richard - arr. Rubinstein, Arthur and Rudy, Mikhail - Si
TTITLE3=egfried Idyll
TTITLE4=Wagner, Richard - Drei Melodien
TTITLE5=Wagner, Richard - Tu n'es qu'images fugitives
TTITLE6=Wagner, Richard - Les deux Grenadiers
TTITLE7=Wagner, Richard - Lied des Mephistopheles No.4
TTITLE8=Wagner, Richard - Lied des Mephistopheles No.5
TTITLE9=Wagner, Richard - Der Tannenbaum
TTITLE10=Wagner, Richard - Wesendonck-Lieder - 1. Der Engel
TTITLE11=Wagner, Richard - Wesendonck-Lieder - 2. Stehe still
TTITLE12=Wagner, Richard - Wesendonck-Lieder - 3. Im Treibhaus
TTITLE13=Wagner, Richard - Wesendonck-Lieder - 4. Schmerzen
TTITLE14=Wagner, Richard - Wesendonck-Lieder - 5. Träume
EXTD=
EXTT0=
EXTT1=
EXTT2=
EXTT3=
EXTT4=
EXTT5=
EXTT6=
EXTT7=
EXTT8=
EXTT9=
EXTT10=
EXTT11=
EXTT12=
EXTT13=
EXTT14=
PLAYORDER=
